<svg width="31" height="31" viewBox="0 0 31 31" fill="none" xmlns="http://www.w3.org/2000/svg">
<path d="M23.25 16.7891H16.7917V23.2474C16.7917 23.59 16.6556 23.9185 16.4134 24.1608C16.1712 24.403 15.8426 24.5391 15.5 24.5391C15.1575 24.5391 14.8289 24.403 14.5867 24.1608C14.3445 23.9185 14.2084 23.59 14.2084 23.2474V16.7891H7.75004C7.40747 16.7891 7.07893 16.653 6.83669 16.4108C6.59446 16.1685 6.45837 15.84 6.45837 15.4974C6.45837 15.1548 6.59446 14.8263 6.83669 14.5841C7.07893 14.3418 7.40747 14.2057 7.75004 14.2057H14.2084V7.74742C14.2084 7.40484 14.3445 7.0763 14.5867 6.83407C14.8289 6.59184 15.1575 6.45575 15.5 6.45575C15.8426 6.45575 16.1712 6.59184 16.4134 6.83407C16.6556 7.0763 16.7917 7.40484 16.7917 7.74742V14.2057H23.25C23.5926 14.2057 23.9212 14.3418 24.1634 14.5841C24.4056 14.8263 24.5417 15.1548 24.5417 15.4974C24.5417 15.84 24.4056 16.1685 24.1634 16.4108C23.9212 16.653 23.5926 16.7891 23.25 16.7891Z" fill="#454597"/>
</svg>
