<svg width="18" height="16" viewBox="0 0 18 16" fill="none" xmlns="http://www.w3.org/2000/svg">
<path d="M7.29758 5.25469e-09C8.6579 -4.8654e-05 9.99116 0.337848 11.1469 0.975558C12.3026 1.61327 13.2349 2.52541 13.8384 3.60904C14.4418 4.69267 14.6926 5.90466 14.5623 7.10823C14.432 8.31181 13.9258 9.45905 13.1009 10.4205L17.7162 14.5245C17.8907 14.6802 17.992 14.889 17.9995 15.1087C18.0071 15.3283 17.9203 15.5423 17.7568 15.7071C17.5933 15.8719 17.3653 15.9753 17.1192 15.9961C16.8731 16.0169 16.6273 15.9537 16.4317 15.8193L16.3403 15.7475L11.7231 11.6452C10.8016 12.2698 9.72602 12.6903 8.58537 12.872C7.44473 13.0537 6.27181 12.9914 5.16366 12.6901C4.05551 12.3889 3.04399 11.8574 2.2128 11.1397C1.38161 10.422 0.754657 9.53868 0.383808 8.56283C0.012958 7.58698 -0.0911219 6.54665 0.0801802 5.52795C0.251482 4.50924 0.693241 3.54143 1.3689 2.70462C2.04457 1.8678 2.9347 1.18602 3.96567 0.715706C4.99663 0.24539 6.13877 5.43643e-05 7.29758 5.25469e-09ZM7.29758 1.72983C5.87819 1.72983 4.51692 2.23102 3.51326 3.12314C2.50959 4.01525 1.94574 5.22522 1.94574 6.48687C1.94574 7.74851 2.50959 8.95849 3.51326 9.8506C4.51692 10.7427 5.87819 11.2439 7.29758 11.2439C8.71698 11.2439 10.0782 10.7427 11.0819 9.8506C12.0856 8.95849 12.6494 7.74851 12.6494 6.48687C12.6494 5.22522 12.0856 4.01525 11.0819 3.12314C10.0782 2.23102 8.71698 1.72983 7.29758 1.72983Z" fill="#ADADAD"/>
</svg>
